G04 Layer_Physical_Order=1*
G04 Layer_Color=255*
%FSLAX43Y43*%
%MOMM*%
G71*
G01*
G75*
%ADD10R,2.600X2.700*%
%ADD11O,0.800X0.250*%
%ADD12O,0.250X0.800*%
%ADD13R,2.500X2.500*%
%ADD14O,0.950X0.300*%
%ADD15O,0.300X0.950*%
%ADD16R,2.000X4.000*%
%ADD17R,1.450X0.600*%
%ADD18R,0.910X1.220*%
%ADD19R,0.600X1.450*%
%ADD20R,2.600X1.900*%
%ADD21R,0.600X0.950*%
%ADD22R,1.050X1.300*%
%ADD23R,0.900X0.600*%
G04:AMPARAMS|DCode=24|XSize=0.5mm|YSize=0.45mm|CornerRadius=0.045mm|HoleSize=0mm|Usage=FLASHONLY|Rotation=270.000|XOffset=0mm|YOffset=0mm|HoleType=Round|Shape=RoundedRectangle|*
%AMROUNDEDRECTD24*
21,1,0.500,0.360,0,0,270.0*
21,1,0.410,0.450,0,0,270.0*
1,1,0.090,-0.180,-0.205*
1,1,0.090,-0.180,0.205*
1,1,0.090,0.180,0.205*
1,1,0.090,0.180,-0.205*
%
%ADD24ROUNDEDRECTD24*%
G04:AMPARAMS|DCode=25|XSize=1.5mm|YSize=2.5mm|CornerRadius=0.15mm|HoleSize=0mm|Usage=FLASHONLY|Rotation=270.000|XOffset=0mm|YOffset=0mm|HoleType=Round|Shape=RoundedRectangle|*
%AMROUNDEDRECTD25*
21,1,1.500,2.200,0,0,270.0*
21,1,1.200,2.500,0,0,270.0*
1,1,0.300,-1.100,-0.600*
1,1,0.300,-1.100,0.600*
1,1,0.300,1.100,0.600*
1,1,0.300,1.100,-0.600*
%
%ADD25ROUNDEDRECTD25*%
%ADD26R,3.600X8.200*%
%ADD27R,2.400X1.800*%
%ADD28R,1.300X1.050*%
%ADD29R,1.450X2.700*%
%ADD30R,3.000X1.300*%
%ADD31R,1.050X2.200*%
%ADD32R,1.000X1.000*%
%ADD33O,0.600X1.600*%
%ADD34O,1.600X0.600*%
%ADD35R,1.300X3.000*%
%ADD36C,0.254*%
%ADD37C,0.400*%
%ADD38C,0.250*%
%ADD39C,0.200*%
%ADD40C,0.500*%
%ADD41C,3.000*%
%ADD42C,1.800*%
%ADD43C,0.600*%
%ADD44C,0.152*%
%ADD45C,1.000*%
%ADD46C,1.750*%
%ADD47O,1.750X1.500*%
%ADD48R,1.750X1.750*%
%ADD49C,0.550*%
G36*
X17875Y375D02*
X9000Y375D01*
X9000Y2933D01*
X9534Y3500D01*
X13800D01*
Y8875D01*
X17875D01*
X17875Y375D01*
D02*
G37*
G36*
X7900Y3625D02*
X8625Y2900D01*
X8625Y375D01*
X2800Y375D01*
X2800Y3625D01*
X3850D01*
X7900Y3625D01*
D02*
G37*
G36*
X24425Y16225D02*
X25125Y15525D01*
X25125Y0D01*
X18375D01*
Y9500D01*
Y9750D01*
X20750Y12125D01*
Y16225D01*
X24425Y16225D01*
D02*
G37*
G36*
X14725Y13825D02*
X16025D01*
Y12800D01*
X7100Y8525D01*
Y5400D01*
X4125D01*
X3483Y4758D01*
X3449Y4736D01*
X3322Y4608D01*
X2725D01*
Y5550D01*
Y8300D01*
X3950D01*
X5325Y9675D01*
X5375Y9725D01*
Y11271D01*
X5384Y11316D01*
Y14025D01*
X6675D01*
X7875Y15225D01*
X13325D01*
X14725Y13825D01*
D02*
G37*
G36*
X27925Y19375D02*
Y17700D01*
X27200Y16975D01*
X25950D01*
Y18475D01*
X27125Y19650D01*
Y20425D01*
X27925D01*
Y19375D01*
D02*
G37*
G36*
X33725Y20800D02*
X34175Y20000D01*
Y19925D01*
Y19000D01*
X34200Y18975D01*
X34625Y18650D01*
X35475Y18600D01*
Y16125D01*
X34125D01*
X33425Y15425D01*
Y14625D01*
X32100D01*
Y14675D01*
Y24925D01*
X33650D01*
X33725Y20800D01*
D02*
G37*
G36*
X14400Y18875D02*
Y16500D01*
X19975D01*
X20250Y16225D01*
Y12350D01*
X17875Y9975D01*
X17875Y9200D01*
X9890Y9175D01*
X9800Y9265D01*
Y9400D01*
X16500Y12625D01*
Y14250D01*
X14875D01*
X13500Y15625D01*
X7900D01*
Y18400D01*
X10100Y20500D01*
X12775D01*
X14400Y18875D01*
D02*
G37*
D10*
X20800Y24025D02*
D03*
D11*
X18850Y22775D02*
D03*
Y23275D02*
D03*
Y23775D02*
D03*
Y24275D02*
D03*
Y24775D02*
D03*
Y25275D02*
D03*
X22750D02*
D03*
Y24775D02*
D03*
Y24275D02*
D03*
Y23775D02*
D03*
Y23275D02*
D03*
Y22775D02*
D03*
D12*
X19550Y25975D02*
D03*
X20050D02*
D03*
X20550D02*
D03*
X21050D02*
D03*
X21550D02*
D03*
X22050D02*
D03*
Y22075D02*
D03*
X21550D02*
D03*
X21050D02*
D03*
X20550D02*
D03*
X20050D02*
D03*
X19550D02*
D03*
D13*
X10000Y24100D02*
D03*
D14*
X8100Y23100D02*
D03*
Y23600D02*
D03*
Y24100D02*
D03*
Y24600D02*
D03*
Y25100D02*
D03*
X11900D02*
D03*
Y24600D02*
D03*
Y24100D02*
D03*
Y23600D02*
D03*
Y23100D02*
D03*
D15*
X9000Y26000D02*
D03*
X9500D02*
D03*
X10000D02*
D03*
X10500D02*
D03*
X11000D02*
D03*
Y22200D02*
D03*
X10500D02*
D03*
X10000D02*
D03*
X9500D02*
D03*
X9000D02*
D03*
D16*
X9100Y6345D02*
D03*
D17*
X11825Y4440D02*
D03*
Y5710D02*
D03*
Y6980D02*
D03*
Y8250D02*
D03*
X6375Y4440D02*
D03*
Y5710D02*
D03*
Y6980D02*
D03*
Y8250D02*
D03*
D18*
X29862Y24250D02*
D03*
X33138D02*
D03*
D19*
X2845Y26275D02*
D03*
X4115D02*
D03*
X5385D02*
D03*
X6655D02*
D03*
X2845Y31725D02*
D03*
X4115D02*
D03*
X5385D02*
D03*
X6655D02*
D03*
D20*
X2250Y20650D02*
D03*
Y16350D02*
D03*
D21*
X3025Y5075D02*
D03*
X1125D02*
D03*
Y7825D02*
D03*
X2075D02*
D03*
X3025D02*
D03*
D22*
X26576Y7225D02*
D03*
X28925D02*
D03*
X26576Y4725D02*
D03*
X28925D02*
D03*
X32924Y2275D02*
D03*
X30575D02*
D03*
X32924Y4775D02*
D03*
X30575D02*
D03*
X32924Y7775D02*
D03*
X30575D02*
D03*
X26576Y12550D02*
D03*
X28925D02*
D03*
X64174Y24775D02*
D03*
X61825D02*
D03*
X64174Y17275D02*
D03*
X61825D02*
D03*
X26576Y15225D02*
D03*
X28925D02*
D03*
X3424Y9825D02*
D03*
X1075D02*
D03*
X1076Y13750D02*
D03*
X3425D02*
D03*
X3424Y23275D02*
D03*
X1075D02*
D03*
X16699Y25225D02*
D03*
X14350D02*
D03*
X16674Y22475D02*
D03*
X14325D02*
D03*
X61825Y22275D02*
D03*
X64174D02*
D03*
X61825Y19775D02*
D03*
X64174D02*
D03*
X28924Y2275D02*
D03*
X26575D02*
D03*
X64174Y14775D02*
D03*
X61825D02*
D03*
X26576Y17725D02*
D03*
X28925D02*
D03*
X26576Y9925D02*
D03*
X28925D02*
D03*
X32924Y15275D02*
D03*
X30575D02*
D03*
X32924Y17775D02*
D03*
X30575D02*
D03*
X976Y1075D02*
D03*
X3325D02*
D03*
X976Y2975D02*
D03*
X3325D02*
D03*
X3424Y11800D02*
D03*
X1075D02*
D03*
D23*
X32900Y11250D02*
D03*
X30600Y10300D02*
D03*
Y12200D02*
D03*
D24*
X25475Y22625D02*
D03*
X26425D02*
D03*
X27350D02*
D03*
X25475Y20175D02*
D03*
X26425D02*
D03*
X27350D02*
D03*
D25*
X26425Y21400D02*
D03*
D26*
X21575Y4775D02*
D03*
X14975D02*
D03*
D27*
X6800Y1800D02*
D03*
X10900D02*
D03*
D28*
X6025Y21576D02*
D03*
Y23925D02*
D03*
Y17651D02*
D03*
Y20000D02*
D03*
X15375Y13301D02*
D03*
Y15650D02*
D03*
X6025Y15849D02*
D03*
Y13500D02*
D03*
X15350Y17301D02*
D03*
Y19650D02*
D03*
X17800Y19649D02*
D03*
Y17300D02*
D03*
X19800Y17301D02*
D03*
Y19650D02*
D03*
X22300Y17301D02*
D03*
Y19650D02*
D03*
D29*
X32825Y21000D02*
D03*
X30175D02*
D03*
D30*
X23400Y13100D02*
D03*
X18200D02*
D03*
D31*
X61375Y30400D02*
D03*
X64225D02*
D03*
X64200Y2400D02*
D03*
X61350D02*
D03*
D32*
X62800Y32050D02*
D03*
Y28750D02*
D03*
X62775Y750D02*
D03*
Y4050D02*
D03*
D33*
X39250Y25350D02*
D03*
X40250D02*
D03*
X41250D02*
D03*
X42250D02*
D03*
X43250D02*
D03*
X44250D02*
D03*
X45250D02*
D03*
X46250D02*
D03*
X47250D02*
D03*
X48250D02*
D03*
X49250D02*
D03*
X50250D02*
D03*
X51250D02*
D03*
X52250D02*
D03*
X53250D02*
D03*
X54250D02*
D03*
X55250D02*
D03*
Y1350D02*
D03*
X54250D02*
D03*
X53250D02*
D03*
X52250D02*
D03*
X51250D02*
D03*
X50250D02*
D03*
X49250D02*
D03*
X48250D02*
D03*
X47250D02*
D03*
X46250D02*
D03*
X45250D02*
D03*
X44250D02*
D03*
X43250D02*
D03*
X42250D02*
D03*
X41250D02*
D03*
X40250D02*
D03*
X39250D02*
D03*
D34*
X59250Y21350D02*
D03*
Y20350D02*
D03*
Y19350D02*
D03*
Y18350D02*
D03*
Y17350D02*
D03*
Y16350D02*
D03*
Y15350D02*
D03*
Y14350D02*
D03*
Y13350D02*
D03*
Y12350D02*
D03*
Y11350D02*
D03*
Y10350D02*
D03*
Y9350D02*
D03*
Y8350D02*
D03*
Y7350D02*
D03*
Y6350D02*
D03*
Y5350D02*
D03*
X35250D02*
D03*
Y6350D02*
D03*
Y7350D02*
D03*
Y8350D02*
D03*
Y9350D02*
D03*
Y10350D02*
D03*
Y11350D02*
D03*
Y12350D02*
D03*
Y13350D02*
D03*
Y14350D02*
D03*
Y15350D02*
D03*
Y16350D02*
D03*
Y17350D02*
D03*
Y18350D02*
D03*
Y19350D02*
D03*
Y20350D02*
D03*
Y21350D02*
D03*
D35*
X10725Y13725D02*
D03*
Y18925D02*
D03*
D36*
X-4560Y32800D02*
X-254D01*
X-4560Y0D02*
X-254D01*
X-4306Y19828D02*
Y32800D01*
Y0D02*
Y12159D01*
X-4814Y31276D02*
X-4306Y32800D01*
X-3798Y31276D01*
X-4306Y0D02*
X-3798Y1524D01*
X-4814D02*
X-4306Y0D01*
X65000Y-2429D02*
Y-254D01*
X0Y-2429D02*
Y-254D01*
X35928Y-2175D02*
X65000D01*
X0D02*
X28259D01*
X63476Y-1667D02*
X65000Y-2175D01*
X63476Y-2683D02*
X65000Y-2175D01*
X0D02*
X1524Y-2683D01*
X0Y-2175D02*
X1524Y-1667D01*
X18250Y24775D02*
X18850D01*
X19550Y25975D02*
Y26900D01*
X22750Y24775D02*
X23675D01*
X11900Y24100D02*
X12423D01*
X12500Y21500D02*
Y22177D01*
X3424Y23499D02*
X4400Y24475D01*
X12500Y22177D02*
X13072Y22749D01*
Y23451D01*
X12423Y24100D02*
X13072Y23451D01*
X52250Y1350D02*
Y2775D01*
X51250Y1350D02*
Y2750D01*
X50250Y2775D02*
X50250Y2775D01*
Y1350D02*
Y2775D01*
X53250Y1350D02*
Y2775D01*
X5385Y30360D02*
Y31725D01*
X3100Y28075D02*
X5385Y30360D01*
X975Y28075D02*
X3100D01*
X4115Y30865D02*
Y31725D01*
X3325Y30075D02*
X4115Y30865D01*
X975Y30075D02*
X3325D01*
X55250Y375D02*
Y1350D01*
X55138Y263D02*
X55250Y375D01*
X49487Y263D02*
X55138D01*
X49250Y500D02*
X49487Y263D01*
X48975Y225D02*
X49250Y500D01*
X39575Y225D02*
X48975D01*
X39250Y550D02*
X39575Y225D01*
X55250Y24300D02*
Y25350D01*
X55050Y24100D02*
X55250Y24300D01*
X53400Y24100D02*
X55050D01*
X53250Y24250D02*
X53400Y24100D01*
X53250Y24250D02*
Y25350D01*
X53100Y24100D02*
X53250Y24250D01*
X43250Y24250D02*
Y25350D01*
Y24250D02*
X43400Y24100D01*
X53100D01*
X40250Y24325D02*
X40450Y24125D01*
X40250Y24325D02*
Y25350D01*
X39250D02*
X40250D01*
X42250D02*
X43250D01*
X42250Y24150D02*
Y25350D01*
X42225Y24125D02*
X42250Y24150D01*
X40450Y24125D02*
X42225D01*
X35250Y20350D02*
Y21350D01*
Y19350D02*
Y20350D01*
X63025Y13626D02*
X64174Y14775D01*
X63025Y12825D02*
Y13626D01*
X26425Y19375D02*
Y20175D01*
X27550Y16600D02*
X28925Y15225D01*
X25625Y18575D02*
X26425Y19375D01*
X25625Y16750D02*
Y18575D01*
Y16750D02*
X25775Y16600D01*
X27550D01*
X28925Y12550D02*
Y15225D01*
X17850Y25175D02*
X18250Y24775D01*
X19800Y19650D02*
Y20250D01*
X2845Y25045D02*
Y26275D01*
X1075Y23275D02*
X2845Y25045D01*
X7150Y25107D02*
X7657Y24600D01*
X8100D01*
X3424Y23275D02*
Y23499D01*
X5206Y22338D02*
X5256Y22388D01*
X6189D01*
X7401Y23600D01*
X8100D01*
X1075Y23275D02*
X2012Y22338D01*
X5206D01*
X39250Y550D02*
Y750D01*
X13381Y24451D02*
X13415Y24485D01*
X13376Y24451D02*
X13381D01*
X19550Y21150D02*
Y22075D01*
X19800Y20250D02*
X20400Y20850D01*
X7150Y25107D02*
X7175Y25132D01*
Y25151D01*
D37*
X32924Y7642D02*
X34632Y9350D01*
X4115Y25835D02*
X6025Y23925D01*
X34600Y22000D02*
Y22600D01*
Y22000D02*
X35250Y21350D01*
X35700Y21800D02*
Y22600D01*
X35250Y21350D02*
X35700Y21800D01*
X27875Y21400D02*
X28500Y22025D01*
X26425Y21400D02*
X27875D01*
X23675Y24775D02*
X28075D01*
X34817Y15350D02*
X35250D01*
X32050Y12583D02*
X34817Y15350D01*
X34632Y9350D02*
X35250D01*
X26575Y4724D02*
X26576Y4725D01*
X30575Y7850D02*
X32050Y9325D01*
Y12583D01*
X30575Y7775D02*
Y7850D01*
X59250Y21350D02*
X60900D01*
X59250Y19350D02*
X59750D01*
X61825Y17275D01*
X64174D02*
Y19775D01*
X64174Y19775D02*
X64174Y19775D01*
X64174Y22275D02*
Y24775D01*
X64174Y24775D01*
X60550D02*
X61825D01*
X58075Y22300D02*
X60550Y24775D01*
X58075Y20625D02*
Y22300D01*
Y20625D02*
X58350Y20350D01*
X59250D01*
X25601Y4725D02*
X26576D01*
X25601Y7225D02*
X26576D01*
X25601Y9925D02*
X26576D01*
X25475Y19114D02*
Y20175D01*
X25138Y18777D02*
X25475Y19114D01*
X25138Y16548D02*
Y18777D01*
Y16548D02*
X26461Y15225D01*
X26576D01*
X28925Y17725D02*
Y19050D01*
X28925Y19050D01*
X30575Y17775D02*
X31600D01*
X31625Y17800D01*
X30575Y15275D02*
X31550D01*
X31600Y15325D01*
X26576Y15074D02*
Y15225D01*
X27775Y11075D02*
X28925Y9925D01*
X30540Y11540D01*
X31199D01*
X31490Y11831D01*
Y12815D01*
X31900Y13225D01*
Y14251D01*
X32924Y15275D01*
X30600Y9300D02*
Y10300D01*
X30600Y9300D02*
X30600Y9300D01*
X26576Y15074D02*
X27775Y13875D01*
Y11075D02*
Y13875D01*
X26425Y22625D02*
Y23550D01*
X28575Y21000D02*
X30175D01*
X28600Y24250D02*
X29862D01*
X55750Y24850D02*
X56300D01*
X55250Y25350D02*
X55750Y24850D01*
X55700Y25800D02*
X56300D01*
X55250Y25350D02*
X55700Y25800D01*
X59375Y21475D02*
Y22300D01*
X59250Y21350D02*
X59375Y21475D01*
X60500Y22875D02*
X61225D01*
X61825Y22275D01*
X55800Y1900D02*
X56325D01*
X55250Y1350D02*
X55800Y1900D01*
X55700Y900D02*
X56300D01*
X55250Y1350D02*
X55700Y900D01*
X49250Y2750D02*
X49250Y2750D01*
Y1350D02*
Y2750D01*
X39250Y1350D02*
Y2750D01*
X975Y26075D02*
X2260Y27360D01*
X3840D01*
X4115Y27085D01*
Y26275D02*
Y27085D01*
X15350Y17301D02*
X17799D01*
X17800Y17300D01*
X19799D01*
X19800Y17301D01*
X22300D01*
X4115Y25835D02*
Y26275D01*
X25675Y11649D02*
X26576Y12550D01*
X28075Y24775D02*
X28600Y24250D01*
X28500Y21075D02*
Y22025D01*
Y24150D01*
X56300Y900D02*
X59850D01*
X61350Y2400D01*
X62775Y750D02*
Y2375D01*
X61350Y2400D02*
X62800D01*
X64200D01*
X62800Y30400D02*
Y32050D01*
X61375Y30400D02*
X62800D01*
X64225D01*
X57900D02*
X61375D01*
X56250Y28750D02*
X57900Y30400D01*
X58350Y6350D02*
X59250D01*
X57575Y5575D02*
X58350Y6350D01*
X59250D02*
X61575D01*
X57825Y10350D02*
X59250D01*
X57775Y10300D02*
X57825Y10350D01*
X26425Y23550D02*
X26450Y23575D01*
X26475D01*
X26425Y24750D02*
X26475Y24700D01*
Y23575D02*
Y24700D01*
X61575Y6350D02*
X62500Y7275D01*
X62725D01*
D38*
X18495Y23275D02*
X18850D01*
X18325Y22775D02*
X18850D01*
X22050Y25975D02*
Y26850D01*
X11900Y23600D02*
X12340D01*
X6960Y24315D02*
Y24568D01*
X14500Y22300D02*
X14700Y22500D01*
X14500Y22300D02*
X15350Y21450D01*
X14325Y22475D02*
X14500Y22300D01*
X15350Y19650D02*
Y21450D01*
X12660Y22920D02*
Y23280D01*
X12405Y22665D02*
X12660Y22920D01*
X11945Y22665D02*
X12405D01*
X35250Y8350D02*
X36225D01*
X36760Y7815D01*
Y4953D02*
Y7815D01*
X34338Y4355D02*
X34342D01*
X32924Y4775D02*
X33918D01*
X34338Y4355D01*
X36072Y4265D02*
X36760Y4953D01*
X34342Y4355D02*
X34432Y4265D01*
X36072D01*
X35250Y7350D02*
X35295Y7305D01*
X28925Y4500D02*
Y4725D01*
X30575Y2275D02*
Y2850D01*
X28925Y4500D02*
X30575Y2850D01*
X60900Y21350D02*
X61825Y22275D01*
Y19775D02*
Y20425D01*
X60900Y21350D02*
X61825Y20425D01*
X832Y15115D02*
X3668D01*
X665Y15282D02*
X832Y15115D01*
X665Y15282D02*
Y19065D01*
X2250Y20650D01*
X5000Y21576D02*
X6025D01*
X4074Y20650D02*
X5000Y21576D01*
X2250Y20650D02*
X4074D01*
X2475Y16125D02*
X3275D01*
X2250Y16350D02*
X2475Y16125D01*
X5385Y26275D02*
Y26635D01*
X22750Y23275D02*
X23325D01*
X14350Y22500D02*
Y25225D01*
X14325Y22475D02*
X14350Y22500D01*
X15350Y19650D02*
X17799D01*
X17800Y19649D01*
X16699Y25071D02*
Y25225D01*
Y25071D02*
X18495Y23275D01*
X16674Y22475D02*
X18025D01*
X18325Y22775D01*
X6025Y18926D02*
Y20000D01*
X8100Y22026D02*
Y23100D01*
X7175Y24100D02*
X8100D01*
X6960Y24315D02*
X7175Y24100D01*
X5385Y25540D02*
X6190Y24735D01*
X5385Y25540D02*
Y26275D01*
X11625Y23100D02*
X11900D01*
X11535Y23010D02*
X11625Y23100D01*
X5385Y26635D02*
X7500Y28750D01*
X8750D01*
X16699Y25225D02*
Y25801D01*
X16674Y22475D02*
Y23326D01*
X15160Y24840D02*
X16674Y23326D01*
X6025Y17651D02*
Y18075D01*
X6960Y17008D02*
Y18430D01*
X6777Y16825D02*
X6960Y17008D01*
X4575Y16825D02*
X6777D01*
X3835Y16085D02*
X4575Y16825D01*
X3835Y15282D02*
Y16085D01*
X3668Y15115D02*
X3835Y15282D01*
X2250Y16350D02*
X2650D01*
X3951Y17651D01*
X6025D01*
X22300Y17301D02*
X22300Y17301D01*
X22300Y17301D02*
Y18300D01*
X13750Y28750D02*
X16699Y25801D01*
X27875Y4725D02*
X28925D01*
X27800Y4800D02*
X27875Y4725D01*
X12340Y23600D02*
X12660Y23280D01*
X6655Y26275D02*
X7729D01*
X19800Y17301D02*
Y18375D01*
X11940Y21732D02*
X11945Y21737D01*
Y22665D01*
X11530Y21902D02*
X11535Y21907D01*
X6025Y18075D02*
X9390Y21440D01*
X6960Y18430D02*
X9560Y21030D01*
X11535Y21907D02*
Y23010D01*
X9560Y21030D02*
X11350D01*
X11940Y21620D01*
Y21732D01*
X9390Y21440D02*
X11180D01*
X11530Y21790D01*
Y21902D01*
X11942Y28750D02*
X13392Y27300D01*
X11250Y28750D02*
X11942D01*
X30600Y13750D02*
X30625Y13725D01*
X30775D01*
X30600Y12200D02*
Y13750D01*
X6190Y24735D02*
X6793D01*
X6960Y24568D01*
X15160Y24840D02*
Y26347D01*
X13392Y27300D02*
X14207D01*
X15160Y26347D01*
X14235Y25340D02*
X14350Y25225D01*
X14235Y25340D02*
Y26365D01*
X23325Y23275D02*
X23700Y22900D01*
X14325Y22125D02*
X14500Y22300D01*
D39*
X9500Y26000D02*
Y26645D01*
X11000Y26000D02*
X11905D01*
X10500D02*
Y26645D01*
X8100Y25100D02*
Y25600D01*
X9000Y26000D02*
Y26654D01*
X10307Y27095D02*
X11828D01*
X10053Y26841D02*
X10307Y27095D01*
X9696Y26841D02*
X10053D01*
X9500Y26645D02*
X9696Y26841D01*
X10158Y27455D02*
X11977D01*
X9904Y27201D02*
X10158Y27455D01*
X9547Y27201D02*
X9904D01*
X9000Y26654D02*
X9547Y27201D01*
X10590Y26735D02*
X11679D01*
X10500Y26645D02*
X10590Y26735D01*
X13459Y21798D02*
Y23611D01*
Y21798D02*
X14157Y21100D01*
X11679Y26735D02*
X12995Y25419D01*
Y24873D02*
Y25419D01*
X12632Y26800D02*
X13100D01*
X11977Y27455D02*
X12632Y26800D01*
X11828Y27095D02*
X12923Y26000D01*
X12635Y24435D02*
X13459Y23611D01*
X12635Y24435D02*
Y25270D01*
X11905Y26000D02*
X12635Y25270D01*
X290Y3661D02*
X976Y2975D01*
X290Y3661D02*
Y14507D01*
X3424Y11800D02*
X3425Y11801D01*
Y13750D01*
X2515Y14660D02*
X3425Y13750D01*
X443Y14660D02*
X2515D01*
X290Y14507D02*
X443Y14660D01*
X21575Y2225D02*
Y4775D01*
X19450Y100D02*
X21575Y2225D01*
X1951Y100D02*
X19450D01*
X976Y1075D02*
X1951Y100D01*
X976Y824D02*
Y975D01*
X27800Y7200D02*
X27825Y7225D01*
X28925D01*
X17500Y30000D02*
X21605D01*
X16250Y31250D02*
X17500Y30000D01*
X19885Y32385D02*
X24415D01*
X18750Y31250D02*
X19885Y32385D01*
X33125Y11250D02*
X33800Y11925D01*
X32900Y11250D02*
X33125D01*
X33800Y11925D02*
Y13300D01*
X34850Y14350D01*
X35250D01*
X36200Y7350D02*
X36375Y7175D01*
X28924Y2275D02*
X29874Y1325D01*
X28925Y7225D02*
X29360Y6790D01*
X34600Y6350D02*
X35250D01*
X34750Y5350D02*
X35250D01*
X29874Y1325D02*
X31375D01*
X34160Y6790D02*
X34600Y6350D01*
X33875Y6225D02*
X34750Y5350D01*
X29360Y6790D02*
X34160D01*
X31800Y6225D02*
X33875D01*
X31375Y5800D02*
X31800Y6225D01*
X35913Y4650D02*
X36375Y5112D01*
X34627Y4650D02*
X35913D01*
X33592Y5685D02*
X34627Y4650D01*
X32291Y5685D02*
X33592D01*
X32139Y5533D02*
X32291Y5685D01*
X32124Y5533D02*
X32139D01*
X32114Y5543D02*
X32124Y5533D01*
X36375Y5112D02*
Y7175D01*
X35250Y7350D02*
X36200D01*
X32114Y3085D02*
Y5543D01*
Y3085D02*
X32924Y2275D01*
X31375Y1325D02*
Y5800D01*
X22750Y24275D02*
X23400D01*
X35000Y30000D02*
X36250Y28750D01*
X21605Y30000D02*
X22615Y28990D01*
Y27885D02*
Y28990D01*
X30895Y30000D02*
X35000D01*
X30115Y29220D02*
X30895Y30000D01*
X30115Y28215D02*
Y29220D01*
X29500Y27600D02*
X30115Y28215D01*
X22615Y27885D02*
X25100Y25400D01*
X25100Y25400D01*
X29700Y27200D02*
X31250Y28750D01*
X24885Y28280D02*
Y31915D01*
X24415Y32385D02*
X24885Y31915D01*
X24500Y27895D02*
X24885Y28280D01*
X24500Y26600D02*
Y27895D01*
X27214Y27600D02*
X29500D01*
X25100Y25400D02*
X25110Y25390D01*
X24500Y26600D02*
X25340Y25760D01*
X25110Y25390D02*
X25120Y25400D01*
X28611Y26810D02*
X28621Y26800D01*
X29809D01*
X28010Y26810D02*
X28611D01*
X27600Y27200D02*
X29700D01*
X27600Y26400D02*
X28010Y26810D01*
X27600Y26300D02*
Y26400D01*
X26700Y26300D02*
X27600Y27200D01*
X28925Y19050D02*
Y20650D01*
X28575Y21000D02*
X28925Y20650D01*
X28500Y21075D02*
X28575Y21000D01*
X28500Y24150D02*
X28600Y24250D01*
X25601Y7225D02*
Y9925D01*
X25601Y9925D02*
X25601Y9925D01*
X25675Y9999D02*
Y11649D01*
X25601Y9925D02*
X25675Y9999D01*
X25601Y4725D02*
Y7225D01*
Y2276D02*
Y4725D01*
X25600Y2275D02*
X25601Y2276D01*
X39250Y750D02*
Y1350D01*
X38800Y300D02*
X39250Y750D01*
X27575Y300D02*
X38800D01*
X62775Y2375D02*
X62800Y2400D01*
X40250Y25350D02*
Y27250D01*
X38750Y28750D02*
X40250Y27250D01*
X60700Y14775D02*
X61825D01*
X60675Y14800D02*
X60700Y14775D01*
X19550Y26900D02*
Y27950D01*
X18750Y28750D02*
X19550Y27950D01*
X31421Y25900D02*
X34979D01*
X34989Y25890D01*
X29809Y26800D02*
X30409Y27400D01*
X32400D01*
X33750Y28750D01*
X38321Y25800D02*
X38400D01*
X44900Y32600D02*
X46250Y31250D01*
X28495Y32600D02*
X44900D01*
X27615Y31720D02*
X28495Y32600D01*
X27615Y28510D02*
Y31720D01*
X30575Y4775D02*
Y6175D01*
X30600Y6200D01*
X8100Y25600D02*
X8590Y26090D01*
Y26753D01*
X9398Y27561D01*
X9755D01*
X10025Y27831D01*
Y32175D01*
X10000Y32200D02*
X10025Y32175D01*
X30921Y25400D02*
X31421Y25900D01*
X25964Y26350D02*
X27214Y27600D01*
X26030Y26925D02*
X27615Y28510D01*
X25120Y25400D02*
X30921D01*
X25340Y25760D02*
X30660D01*
X25825Y26350D02*
X25964D01*
X25325Y26925D02*
X26030D01*
X13399Y26001D02*
X13400Y26000D01*
X13376Y26001D02*
X13399D01*
X12995Y24873D02*
X13376Y24492D01*
Y24451D02*
Y24492D01*
X14157Y21100D02*
X14700D01*
X12923Y26000D02*
X13400D01*
X34989Y25890D02*
X37510D01*
X37475Y25855D02*
X37510Y25890D01*
X37475Y25855D02*
X37505Y25825D01*
X37625D01*
X37847Y26360D02*
X38160Y26047D01*
Y25961D02*
Y26047D01*
Y25961D02*
X38321Y25800D01*
X31260Y26360D02*
X37847D01*
X30660Y25760D02*
X31260Y26360D01*
X24235Y21585D02*
Y23440D01*
X22300Y19650D02*
X24235Y21585D01*
X23400Y24275D02*
X24235Y23440D01*
X25600Y2275D02*
X27575Y300D01*
X976Y1075D02*
Y2975D01*
X976Y2975D02*
X976Y2975D01*
D40*
X3495Y4190D02*
X3745Y4440D01*
X2010Y4190D02*
X3495D01*
X3745Y4440D02*
X6375D01*
X1125Y5075D02*
X2010Y4190D01*
D41*
X21575Y4775D02*
X23400Y6600D01*
Y13100D01*
D42*
X12000Y1800D02*
X14640Y4440D01*
X14975Y4775D01*
X10900Y1800D02*
X12000D01*
D43*
X14975Y4775D02*
Y6325D01*
X13050Y8250D02*
X14975Y6325D01*
X11825Y8250D02*
X13050D01*
X11825Y4440D02*
X14640D01*
X59250Y5350D02*
X62375D01*
X62775Y4950D01*
Y4050D02*
Y4950D01*
X60950Y26900D02*
X62800Y28750D01*
X41250Y25350D02*
Y26300D01*
X41850Y26900D01*
X60950D01*
X35250Y17350D02*
Y18350D01*
X33999Y16350D02*
X35250D01*
X32924Y15275D02*
X33999Y16350D01*
X33975Y18125D02*
Y19850D01*
X32825Y21000D02*
X33975Y19850D01*
X32825Y17874D02*
Y21000D01*
Y17874D02*
X32924Y17775D01*
X33625D02*
X33999Y17401D01*
X33625Y17775D02*
X33975Y18125D01*
X33999Y16350D02*
Y17401D01*
X32924Y15275D02*
Y17775D01*
X35250Y16350D02*
Y17350D01*
X1125Y7825D02*
Y9775D01*
X1075Y9825D02*
X1125Y9775D01*
X1075Y9825D02*
Y11800D01*
Y13749D01*
X1076Y13750D01*
X2075Y7825D02*
Y8476D01*
X3424Y9825D01*
X4915Y11316D01*
Y14485D01*
X6025Y15595D01*
Y15849D01*
D44*
X-4661Y12566D02*
X-4915Y12820D01*
Y13327D01*
X-4661Y13581D01*
X-4408D01*
X-4154Y13327D01*
Y13074D01*
Y13327D01*
X-3900Y13581D01*
X-3646D01*
X-3392Y13327D01*
Y12820D01*
X-3646Y12566D01*
X-3392Y15105D02*
Y14089D01*
X-4408Y15105D01*
X-4661D01*
X-4915Y14851D01*
Y14343D01*
X-4661Y14089D01*
X-3392Y15613D02*
X-3646D01*
Y15867D01*
X-3392D01*
Y15613D01*
X-4661Y16882D02*
X-4915Y17136D01*
Y17644D01*
X-4661Y17898D01*
X-4408D01*
X-4154Y17644D01*
X-3900Y17898D01*
X-3646D01*
X-3392Y17644D01*
Y17136D01*
X-3646Y16882D01*
X-3900D01*
X-4154Y17136D01*
X-4408Y16882D01*
X-4661D01*
X-4154Y17136D02*
Y17644D01*
X-4661Y18406D02*
X-4915Y18660D01*
Y19168D01*
X-4661Y19421D01*
X-3646D01*
X-3392Y19168D01*
Y18660D01*
X-3646Y18406D01*
X-4661D01*
X29681Y-1566D02*
X29174Y-1820D01*
X28666Y-2327D01*
Y-2835D01*
X28920Y-3089D01*
X29427D01*
X29681Y-2835D01*
Y-2581D01*
X29427Y-2327D01*
X28666D01*
X31205Y-1566D02*
X30189D01*
Y-2327D01*
X30697Y-2073D01*
X30951D01*
X31205Y-2327D01*
Y-2835D01*
X30951Y-3089D01*
X30443D01*
X30189Y-2835D01*
X31713Y-3089D02*
Y-2835D01*
X31967D01*
Y-3089D01*
X31713D01*
X32982Y-1820D02*
X33236Y-1566D01*
X33744D01*
X33998Y-1820D01*
Y-2835D01*
X33744Y-3089D01*
X33236D01*
X32982Y-2835D01*
Y-1820D01*
X34506D02*
X34760Y-1566D01*
X35268D01*
X35521Y-1820D01*
Y-2835D01*
X35268Y-3089D01*
X34760D01*
X34506Y-2835D01*
Y-1820D01*
D45*
X975Y32075D02*
D03*
Y30075D02*
D03*
Y28075D02*
D03*
Y26075D02*
D03*
D46*
X56250Y31250D02*
D03*
Y28750D02*
D03*
X53750Y31250D02*
D03*
Y28750D02*
D03*
X51250Y31250D02*
D03*
Y28750D02*
D03*
X48750Y31250D02*
D03*
Y28750D02*
D03*
X46250Y31250D02*
D03*
Y28750D02*
D03*
X43750Y31250D02*
D03*
Y28750D02*
D03*
X41250Y31250D02*
D03*
Y28750D02*
D03*
X38750Y31250D02*
D03*
Y28750D02*
D03*
X36250Y31250D02*
D03*
Y28750D02*
D03*
X33750Y31250D02*
D03*
Y28750D02*
D03*
X31250Y31250D02*
D03*
Y28750D02*
D03*
X28750D02*
D03*
X26250Y31250D02*
D03*
Y28750D02*
D03*
X23750Y31250D02*
D03*
Y28750D02*
D03*
X21250Y31250D02*
D03*
Y28750D02*
D03*
X18750Y31250D02*
D03*
Y28750D02*
D03*
X16250Y31250D02*
D03*
Y28750D02*
D03*
X13750Y31250D02*
D03*
Y28750D02*
D03*
X11250Y31250D02*
D03*
Y28750D02*
D03*
X8750Y31250D02*
D03*
D47*
X28750D02*
D03*
D48*
X8750Y28750D02*
D03*
D49*
X12500Y21500D02*
D03*
X9025Y12000D02*
D03*
Y12700D02*
D03*
Y13400D02*
D03*
Y14100D02*
D03*
X8225D02*
D03*
Y13400D02*
D03*
Y12700D02*
D03*
Y12000D02*
D03*
X7425D02*
D03*
Y12700D02*
D03*
Y13400D02*
D03*
Y14100D02*
D03*
X11200Y17700D02*
D03*
Y16900D02*
D03*
X10500Y16100D02*
D03*
X11200D02*
D03*
X9800D02*
D03*
X10500Y16900D02*
D03*
Y17700D02*
D03*
X9800D02*
D03*
X4400Y24475D02*
D03*
X9025Y14800D02*
D03*
X8225D02*
D03*
X17400Y11300D02*
D03*
X16700D02*
D03*
X16000D02*
D03*
X15300D02*
D03*
X14600D02*
D03*
Y10500D02*
D03*
X15300D02*
D03*
X16000D02*
D03*
X16700D02*
D03*
X17400D02*
D03*
Y9700D02*
D03*
X16700D02*
D03*
X16000D02*
D03*
X15300D02*
D03*
X14600D02*
D03*
X10000Y32200D02*
D03*
X13100Y26800D02*
D03*
X9100Y17700D02*
D03*
X8400D02*
D03*
Y16900D02*
D03*
X9100D02*
D03*
X9800D02*
D03*
X9100Y16100D02*
D03*
X8400D02*
D03*
X22700Y14500D02*
D03*
X23400D02*
D03*
X24100D02*
D03*
X24800D02*
D03*
Y15200D02*
D03*
X24100D02*
D03*
X23400D02*
D03*
X22700Y15900D02*
D03*
X23400D02*
D03*
X24100D02*
D03*
X4350Y800D02*
D03*
X26875Y18800D02*
D03*
X27550Y19250D02*
D03*
Y18575D02*
D03*
Y17850D02*
D03*
X5000Y3125D02*
D03*
Y2350D02*
D03*
Y1600D02*
D03*
Y800D02*
D03*
X34600Y22600D02*
D03*
X35700D02*
D03*
X27800Y7200D02*
D03*
Y4800D02*
D03*
X30600Y6200D02*
D03*
X51250Y2750D02*
D03*
X52250Y2775D02*
D03*
X53250D02*
D03*
X50250D02*
D03*
X63025Y12825D02*
D03*
X25600Y2275D02*
D03*
X25601Y4725D02*
D03*
Y7225D02*
D03*
X25601Y9925D02*
D03*
X31600Y15325D02*
D03*
X31625Y17800D02*
D03*
X28925Y19050D02*
D03*
X30600Y9300D02*
D03*
X28500Y22025D02*
D03*
X28525Y20950D02*
D03*
X56300Y25800D02*
D03*
Y24850D02*
D03*
X59375Y22300D02*
D03*
X60500Y22875D02*
D03*
X56325Y1900D02*
D03*
X56300Y900D02*
D03*
X49250Y2750D02*
D03*
X39250D02*
D03*
X22050Y26850D02*
D03*
X17850Y25175D02*
D03*
X6025Y18926D02*
D03*
X8100Y22026D02*
D03*
X25675Y11649D02*
D03*
X4350Y1600D02*
D03*
Y2350D02*
D03*
Y3125D02*
D03*
X22300Y18300D02*
D03*
X27600Y26300D02*
D03*
X26700D02*
D03*
X23675Y24775D02*
D03*
X60675Y14800D02*
D03*
X38400Y25800D02*
D03*
X57575Y5575D02*
D03*
X57775Y10300D02*
D03*
X8775Y7495D02*
D03*
X9425D02*
D03*
X8775Y6720D02*
D03*
Y5970D02*
D03*
Y5170D02*
D03*
X9425D02*
D03*
Y5970D02*
D03*
Y6720D02*
D03*
X7729Y26275D02*
D03*
X26475Y23575D02*
D03*
X25825Y26350D02*
D03*
X25325Y26925D02*
D03*
X13376Y26001D02*
D03*
Y24451D02*
D03*
X19550Y21150D02*
D03*
X19800Y18375D02*
D03*
X20400Y20850D02*
D03*
X14700Y21100D02*
D03*
X62725Y7275D02*
D03*
X30775Y13725D02*
D03*
X7175Y25151D02*
D03*
X14235Y26365D02*
D03*
X37625Y25825D02*
D03*
X23700Y22900D02*
D03*
M02*
