M48
;Layer_Color=9474304
;FILE_FORMAT=4:3
METRIC,LZ
;TYPE=PLATED
T1F00S00C0.250
T2F00S00C0.600
T3F00S00C1.000
%
T01
X000435Y00008
X0005
Y00016
X000435
Y000235
X0005
Y0003125
X000435
X0008775Y000517
X0009425
Y000597
X0008775
Y000672
X0009425
Y0007495
X0008775
X0009025Y0012
Y00127
Y00134
Y00141
X0008225
Y00134
Y00127
Y0012
X0007425
Y00127
Y00134
Y00141
X00146Y00113
X00153
X0016
X00167
X00174
Y00105
X00167
X0016
X00153
X00146
Y00097
X00153
X0016
X00167
X00174
X0025601Y0009925
X0025675Y0011649
X00248Y00145
X00241
X00234
X00227
X0030775Y0013725
X00306Y00093
Y00062
X00278Y00072
X0025601Y0007225
Y0004725
X00278Y00048
X00256Y0002275
X003925Y000275
X004925
X005025Y0002775
X005125Y000275
X005225Y0002775
X005325
X0056325Y00019
X00563Y00009
X0057575Y0005575
X0057775Y00103
X0063025Y0012825
X0062725Y0007275
X0060675Y00148
X00605Y0022875
X0059375Y00223
X00563Y002485
Y00258
X00384
X0037625Y0025825
X00357Y00226
X00346
X00285Y0022025
X0028525Y002095
X0028925Y001905
X002755Y001925
Y0018575
Y001785
X0026875Y00188
X00223Y00183
X00198Y0018375
X001955Y002115
X00204Y002085
X00237Y00229
X0023675Y0024775
X002205Y002685
X0025325Y0026925
X0025825Y002635
X00267Y00263
X00276
X0026475Y0023575
X00248Y00152
X00241
X00234
Y00159
X00241
X00227
X00316Y0015325
X0031625Y00178
X00147Y00211
X0014235Y0026365
X001785Y0025175
X0013376Y0024451
Y0026001
X00131Y00268
X0007729Y0026275
X0007175Y0025151
X00044Y0024475
X00081Y0022026
X00084Y00177
X00091
X00098
X00105
X00112
Y00169
X00105
X00098
X00091
X00084
Y00161
X00091
X00098
X00105
X00112
X0009025Y00148
X0008225
X0006025Y0018926
X00125Y00215
X001Y00322
T02
X0000975Y0026075
Y0028075
Y0030075
Y0032075
T03
X005375Y002875
X005625
Y003125
X005375
X005125
Y002875
X004875
Y003125
X004625
Y002875
X004375
Y003125
X004125
Y002875
X003875
Y003125
X003625
X003375
Y002875
X003625
X003125
Y003125
X002875
Y002875
X002625
Y003125
X002375
Y002875
X002125
Y003125
X001875
Y002875
X001625
Y003125
X001375
Y002875
X001125
Y003125
X000875
Y002875
M30
