G04 Layer_Color=8388736*
%FSLAX43Y43*%
%MOMM*%
G71*
G01*
G75*
%ADD59R,2.803X2.903*%
%ADD60O,1.003X0.453*%
%ADD61O,0.453X1.003*%
%ADD62R,2.703X2.703*%
%ADD63O,1.153X0.503*%
%ADD64O,0.503X1.153*%
%ADD65R,2.203X4.203*%
%ADD66R,1.653X0.803*%
%ADD67R,1.113X1.423*%
%ADD68R,0.803X1.653*%
%ADD69R,2.803X2.103*%
%ADD70R,0.803X1.153*%
%ADD71R,1.253X1.503*%
%ADD72R,1.103X0.803*%
G04:AMPARAMS|DCode=73|XSize=0.703mm|YSize=0.653mm|CornerRadius=0.147mm|HoleSize=0mm|Usage=FLASHONLY|Rotation=270.000|XOffset=0mm|YOffset=0mm|HoleType=Round|Shape=RoundedRectangle|*
%AMROUNDEDRECTD73*
21,1,0.703,0.360,0,0,270.0*
21,1,0.410,0.653,0,0,270.0*
1,1,0.293,-0.180,-0.205*
1,1,0.293,-0.180,0.205*
1,1,0.293,0.180,0.205*
1,1,0.293,0.180,-0.205*
%
%ADD73ROUNDEDRECTD73*%
G04:AMPARAMS|DCode=74|XSize=1.703mm|YSize=2.703mm|CornerRadius=0.252mm|HoleSize=0mm|Usage=FLASHONLY|Rotation=270.000|XOffset=0mm|YOffset=0mm|HoleType=Round|Shape=RoundedRectangle|*
%AMROUNDEDRECTD74*
21,1,1.703,2.200,0,0,270.0*
21,1,1.200,2.703,0,0,270.0*
1,1,0.503,-1.100,-0.600*
1,1,0.503,-1.100,0.600*
1,1,0.503,1.100,0.600*
1,1,0.503,1.100,-0.600*
%
%ADD74ROUNDEDRECTD74*%
%ADD75R,3.803X8.403*%
%ADD76R,2.603X2.003*%
%ADD77R,1.503X1.253*%
%ADD78R,1.653X2.903*%
%ADD79R,3.203X1.503*%
%ADD80R,1.253X2.403*%
%ADD81R,1.203X1.203*%
%ADD82O,0.803X1.803*%
%ADD83O,1.803X0.803*%
%ADD84R,1.503X3.203*%
%ADD85C,1.203*%
%ADD86C,1.953*%
%ADD87O,1.953X1.703*%
%ADD88R,1.953X1.953*%
%ADD89C,0.753*%
D59*
X20800Y24025D02*
D03*
D60*
X18850Y22775D02*
D03*
Y23275D02*
D03*
Y23775D02*
D03*
Y24275D02*
D03*
Y24775D02*
D03*
Y25275D02*
D03*
X22750D02*
D03*
Y24775D02*
D03*
Y24275D02*
D03*
Y23775D02*
D03*
Y23275D02*
D03*
Y22775D02*
D03*
D61*
X19550Y25975D02*
D03*
X20050D02*
D03*
X20550D02*
D03*
X21050D02*
D03*
X21550D02*
D03*
X22050D02*
D03*
Y22075D02*
D03*
X21550D02*
D03*
X21050D02*
D03*
X20550D02*
D03*
X20050D02*
D03*
X19550D02*
D03*
D62*
X10000Y24100D02*
D03*
D63*
X8100Y23100D02*
D03*
Y23600D02*
D03*
Y24100D02*
D03*
Y24600D02*
D03*
Y25100D02*
D03*
X11900D02*
D03*
Y24600D02*
D03*
Y24100D02*
D03*
Y23600D02*
D03*
Y23100D02*
D03*
D64*
X9000Y26000D02*
D03*
X9500D02*
D03*
X10000D02*
D03*
X10500D02*
D03*
X11000D02*
D03*
Y22200D02*
D03*
X10500D02*
D03*
X10000D02*
D03*
X9500D02*
D03*
X9000D02*
D03*
D65*
X9100Y6345D02*
D03*
D66*
X11825Y4440D02*
D03*
Y5710D02*
D03*
Y6980D02*
D03*
Y8250D02*
D03*
X6375Y4440D02*
D03*
Y5710D02*
D03*
Y6980D02*
D03*
Y8250D02*
D03*
D67*
X29862Y24250D02*
D03*
X33138D02*
D03*
D68*
X2845Y26275D02*
D03*
X4115D02*
D03*
X5385D02*
D03*
X6655D02*
D03*
X2845Y31725D02*
D03*
X4115D02*
D03*
X5385D02*
D03*
X6655D02*
D03*
D69*
X2250Y20650D02*
D03*
Y16350D02*
D03*
D70*
X3025Y5075D02*
D03*
X1125D02*
D03*
Y7825D02*
D03*
X2075D02*
D03*
X3025D02*
D03*
D71*
X26576Y7225D02*
D03*
X28925D02*
D03*
X26576Y4725D02*
D03*
X28925D02*
D03*
X32924Y2275D02*
D03*
X30575D02*
D03*
X32924Y4775D02*
D03*
X30575D02*
D03*
X32924Y7775D02*
D03*
X30575D02*
D03*
X26576Y12550D02*
D03*
X28925D02*
D03*
X64174Y24775D02*
D03*
X61825D02*
D03*
X64174Y17275D02*
D03*
X61825D02*
D03*
X26576Y15225D02*
D03*
X28925D02*
D03*
X3424Y9825D02*
D03*
X1075D02*
D03*
X1076Y13750D02*
D03*
X3425D02*
D03*
X3424Y23275D02*
D03*
X1075D02*
D03*
X16699Y25225D02*
D03*
X14350D02*
D03*
X16674Y22475D02*
D03*
X14325D02*
D03*
X61825Y22275D02*
D03*
X64174D02*
D03*
X61825Y19775D02*
D03*
X64174D02*
D03*
X28924Y2275D02*
D03*
X26575D02*
D03*
X64174Y14775D02*
D03*
X61825D02*
D03*
X26576Y17725D02*
D03*
X28925D02*
D03*
X26576Y9925D02*
D03*
X28925D02*
D03*
X32924Y15275D02*
D03*
X30575D02*
D03*
X32924Y17775D02*
D03*
X30575D02*
D03*
X976Y1075D02*
D03*
X3325D02*
D03*
X976Y2975D02*
D03*
X3325D02*
D03*
X3424Y11800D02*
D03*
X1075D02*
D03*
D72*
X32900Y11250D02*
D03*
X30600Y10300D02*
D03*
Y12200D02*
D03*
D73*
X25475Y22625D02*
D03*
X26425D02*
D03*
X27350D02*
D03*
X25475Y20175D02*
D03*
X26425D02*
D03*
X27350D02*
D03*
D74*
X26425Y21400D02*
D03*
D75*
X21575Y4775D02*
D03*
X14975D02*
D03*
D76*
X6800Y1800D02*
D03*
X10900D02*
D03*
D77*
X6025Y21576D02*
D03*
Y23925D02*
D03*
Y17651D02*
D03*
Y20000D02*
D03*
X15375Y13301D02*
D03*
Y15650D02*
D03*
X6025Y15849D02*
D03*
Y13500D02*
D03*
X15350Y17301D02*
D03*
Y19650D02*
D03*
X17800Y19649D02*
D03*
Y17300D02*
D03*
X19800Y17301D02*
D03*
Y19650D02*
D03*
X22300Y17301D02*
D03*
Y19650D02*
D03*
D78*
X32825Y21000D02*
D03*
X30175D02*
D03*
D79*
X23400Y13100D02*
D03*
X18200D02*
D03*
D80*
X61375Y30400D02*
D03*
X64225D02*
D03*
X64200Y2400D02*
D03*
X61350D02*
D03*
D81*
X62800Y32050D02*
D03*
Y28750D02*
D03*
X62775Y750D02*
D03*
Y4050D02*
D03*
D82*
X39250Y25350D02*
D03*
X40250D02*
D03*
X41250D02*
D03*
X42250D02*
D03*
X43250D02*
D03*
X44250D02*
D03*
X45250D02*
D03*
X46250D02*
D03*
X47250D02*
D03*
X48250D02*
D03*
X49250D02*
D03*
X50250D02*
D03*
X51250D02*
D03*
X52250D02*
D03*
X53250D02*
D03*
X54250D02*
D03*
X55250D02*
D03*
Y1350D02*
D03*
X54250D02*
D03*
X53250D02*
D03*
X52250D02*
D03*
X51250D02*
D03*
X50250D02*
D03*
X49250D02*
D03*
X48250D02*
D03*
X47250D02*
D03*
X46250D02*
D03*
X45250D02*
D03*
X44250D02*
D03*
X43250D02*
D03*
X42250D02*
D03*
X41250D02*
D03*
X40250D02*
D03*
X39250D02*
D03*
D83*
X59250Y21350D02*
D03*
Y20350D02*
D03*
Y19350D02*
D03*
Y18350D02*
D03*
Y17350D02*
D03*
Y16350D02*
D03*
Y15350D02*
D03*
Y14350D02*
D03*
Y13350D02*
D03*
Y12350D02*
D03*
Y11350D02*
D03*
Y10350D02*
D03*
Y9350D02*
D03*
Y8350D02*
D03*
Y7350D02*
D03*
Y6350D02*
D03*
Y5350D02*
D03*
X35250D02*
D03*
Y6350D02*
D03*
Y7350D02*
D03*
Y8350D02*
D03*
Y9350D02*
D03*
Y10350D02*
D03*
Y11350D02*
D03*
Y12350D02*
D03*
Y13350D02*
D03*
Y14350D02*
D03*
Y15350D02*
D03*
Y16350D02*
D03*
Y17350D02*
D03*
Y18350D02*
D03*
Y19350D02*
D03*
Y20350D02*
D03*
Y21350D02*
D03*
D84*
X10725Y13725D02*
D03*
Y18925D02*
D03*
D85*
X975Y32075D02*
D03*
Y30075D02*
D03*
Y28075D02*
D03*
Y26075D02*
D03*
D86*
X56250Y31250D02*
D03*
Y28750D02*
D03*
X53750Y31250D02*
D03*
Y28750D02*
D03*
X51250Y31250D02*
D03*
Y28750D02*
D03*
X48750Y31250D02*
D03*
Y28750D02*
D03*
X46250Y31250D02*
D03*
Y28750D02*
D03*
X43750Y31250D02*
D03*
Y28750D02*
D03*
X41250Y31250D02*
D03*
Y28750D02*
D03*
X38750Y31250D02*
D03*
Y28750D02*
D03*
X36250Y31250D02*
D03*
Y28750D02*
D03*
X33750Y31250D02*
D03*
Y28750D02*
D03*
X31250Y31250D02*
D03*
Y28750D02*
D03*
X28750D02*
D03*
X26250Y31250D02*
D03*
Y28750D02*
D03*
X23750Y31250D02*
D03*
Y28750D02*
D03*
X21250Y31250D02*
D03*
Y28750D02*
D03*
X18750Y31250D02*
D03*
Y28750D02*
D03*
X16250Y31250D02*
D03*
Y28750D02*
D03*
X13750Y31250D02*
D03*
Y28750D02*
D03*
X11250Y31250D02*
D03*
Y28750D02*
D03*
X8750Y31250D02*
D03*
D87*
X28750D02*
D03*
D88*
X8750Y28750D02*
D03*
D89*
X12500Y21500D02*
D03*
X9025Y12000D02*
D03*
Y12700D02*
D03*
Y13400D02*
D03*
Y14100D02*
D03*
X8225D02*
D03*
Y13400D02*
D03*
Y12700D02*
D03*
Y12000D02*
D03*
X7425D02*
D03*
Y12700D02*
D03*
Y13400D02*
D03*
Y14100D02*
D03*
X11200Y17700D02*
D03*
Y16900D02*
D03*
X10500Y16100D02*
D03*
X11200D02*
D03*
X9800D02*
D03*
X10500Y16900D02*
D03*
Y17700D02*
D03*
X9800D02*
D03*
X4400Y24475D02*
D03*
X9025Y14800D02*
D03*
X8225D02*
D03*
X17400Y11300D02*
D03*
X16700D02*
D03*
X16000D02*
D03*
X15300D02*
D03*
X14600D02*
D03*
Y10500D02*
D03*
X15300D02*
D03*
X16000D02*
D03*
X16700D02*
D03*
X17400D02*
D03*
Y9700D02*
D03*
X16700D02*
D03*
X16000D02*
D03*
X15300D02*
D03*
X14600D02*
D03*
X10000Y32200D02*
D03*
X13100Y26800D02*
D03*
X9100Y17700D02*
D03*
X8400D02*
D03*
Y16900D02*
D03*
X9100D02*
D03*
X9800D02*
D03*
X9100Y16100D02*
D03*
X8400D02*
D03*
X22700Y14500D02*
D03*
X23400D02*
D03*
X24100D02*
D03*
X24800D02*
D03*
Y15200D02*
D03*
X24100D02*
D03*
X23400D02*
D03*
X22700Y15900D02*
D03*
X23400D02*
D03*
X24100D02*
D03*
X4350Y800D02*
D03*
X26875Y18800D02*
D03*
X27550Y19250D02*
D03*
Y18575D02*
D03*
Y17850D02*
D03*
X5000Y3125D02*
D03*
Y2350D02*
D03*
Y1600D02*
D03*
Y800D02*
D03*
X34600Y22600D02*
D03*
X35700D02*
D03*
X27800Y7200D02*
D03*
Y4800D02*
D03*
X30600Y6200D02*
D03*
X51250Y2750D02*
D03*
X52250Y2775D02*
D03*
X53250D02*
D03*
X50250D02*
D03*
X63025Y12825D02*
D03*
X25600Y2275D02*
D03*
X25601Y4725D02*
D03*
Y7225D02*
D03*
X25601Y9925D02*
D03*
X31600Y15325D02*
D03*
X31625Y17800D02*
D03*
X28925Y19050D02*
D03*
X30600Y9300D02*
D03*
X28500Y22025D02*
D03*
X28525Y20950D02*
D03*
X56300Y25800D02*
D03*
Y24850D02*
D03*
X59375Y22300D02*
D03*
X60500Y22875D02*
D03*
X56325Y1900D02*
D03*
X56300Y900D02*
D03*
X49250Y2750D02*
D03*
X39250D02*
D03*
X22050Y26850D02*
D03*
X17850Y25175D02*
D03*
X6025Y18926D02*
D03*
X8100Y22026D02*
D03*
X25675Y11649D02*
D03*
X4350Y1600D02*
D03*
Y2350D02*
D03*
Y3125D02*
D03*
X22300Y18300D02*
D03*
X27600Y26300D02*
D03*
X26700D02*
D03*
X23675Y24775D02*
D03*
X60675Y14800D02*
D03*
X38400Y25800D02*
D03*
X57575Y5575D02*
D03*
X57775Y10300D02*
D03*
X8775Y7495D02*
D03*
X9425D02*
D03*
X8775Y6720D02*
D03*
Y5970D02*
D03*
Y5170D02*
D03*
X9425D02*
D03*
Y5970D02*
D03*
Y6720D02*
D03*
X7729Y26275D02*
D03*
X26475Y23575D02*
D03*
X25825Y26350D02*
D03*
X25325Y26925D02*
D03*
X13376Y26001D02*
D03*
Y24451D02*
D03*
X19550Y21150D02*
D03*
X19800Y18375D02*
D03*
X20400Y20850D02*
D03*
X14700Y21100D02*
D03*
X62725Y7275D02*
D03*
X30775Y13725D02*
D03*
X7175Y25151D02*
D03*
X14235Y26365D02*
D03*
X37625Y25825D02*
D03*
X23700Y22900D02*
D03*
M02*
